<svg xmlns="http://www.w3.org/2000/svg" width="1920" height="1080" viewBox="0 0 1920 1080"><rect x="0" y="697" width="57" height="383" fill="#22356b"/><rect x="25" y="657" width="6" height="40" fill="#22356b"/><rect x="16" y="785" width="5" height="7" fill="#9cc2ff" opacity="0.55"/><rect x="60" y="572" width="54" height="508" fill="#22356b"/><rect x="93" y="783" width="5" height="7" fill="#9cc2ff" opacity="0.88"/><rect x="98" y="772" width="5" height="7" fill="#9cc2ff" opacity="0.73"/><rect x="121" y="652" width="114" height="428" fill="#22356b"/><rect x="130" y="755" width="5" height="7" fill="#9cc2ff" opacity="0.68"/><rect x="167" y="759" width="5" height="7" fill="#9cc2ff" opacity="0.65"/><rect x="194" y="704" width="5" height="7" fill="#9cc2ff" opacity="0.74"/><rect x="157" y="721" width="5" height="7" fill="#9cc2ff" opacity="0.41"/><rect x="240" y="686" width="72" height="394" fill="#22356b"/><rect x="269" y="827" width="5" height="7" fill="#9cc2ff" opacity="0.80"/><rect x="257" y="810" width="5" height="7" fill="#9cc2ff" opacity="0.88"/><rect x="323" y="488" width="117" height="592" fill="#22356b"/><rect x="375" y="801" width="5" height="7" fill="#9cc2ff" opacity="0.61"/><rect x="386" y="580" width="5" height="7" fill="#9cc2ff" opacity="0.97"/><rect x="380" y="734" width="5" height="7" fill="#9cc2ff" opacity="0.79"/><rect x="360" y="748" width="5" height="7" fill="#9cc2ff" opacity="0.57"/><rect x="392" y="754" width="5" height="7" fill="#9cc2ff" opacity="0.71"/><rect x="374" y="836" width="5" height="7" fill="#9cc2ff" opacity="0.93"/><rect x="388" y="677" width="5" height="7" fill="#9cc2ff" opacity="0.74"/><rect x="454" y="596" width="108" height="484" fill="#22356b"/><rect x="501" y="814" width="5" height="7" fill="#9cc2ff" opacity="0.82"/><rect x="481" y="830" width="5" height="7" fill="#9cc2ff" opacity="0.94"/><rect x="494" y="803" width="5" height="7" fill="#9cc2ff" opacity="0.95"/><rect x="499" y="683" width="5" height="7" fill="#9cc2ff" opacity="0.97"/><rect x="550" y="818" width="5" height="7" fill="#9cc2ff" opacity="0.70"/><rect x="570" y="554" width="114" height="526" fill="#22356b"/><rect x="628" y="723" width="5" height="7" fill="#9cc2ff" opacity="0.84"/><rect x="638" y="826" width="5" height="7" fill="#9cc2ff" opacity="0.62"/><rect x="663" y="602" width="5" height="7" fill="#9cc2ff" opacity="0.87"/><rect x="619" y="568" width="5" height="7" fill="#9cc2ff" opacity="0.94"/><rect x="600" y="618" width="5" height="7" fill="#9cc2ff" opacity="0.44"/><rect x="659" y="589" width="5" height="7" fill="#9cc2ff" opacity="0.56"/><rect x="687" y="527" width="63" height="553" fill="#22356b"/><rect x="710" y="662" width="5" height="7" fill="#9cc2ff" opacity="0.89"/><rect x="696" y="753" width="5" height="7" fill="#9cc2ff" opacity="0.94"/><rect x="695" y="566" width="5" height="7" fill="#9cc2ff" opacity="0.62"/><rect x="752" y="548" width="81" height="532" fill="#22356b"/><rect x="789" y="508" width="6" height="40" fill="#22356b"/><rect x="772" y="592" width="5" height="7" fill="#9cc2ff" opacity="0.42"/><rect x="760" y="749" width="5" height="7" fill="#9cc2ff" opacity="0.55"/><rect x="778" y="652" width="5" height="7" fill="#9cc2ff" opacity="0.71"/><rect x="758" y="755" width="5" height="7" fill="#9cc2ff" opacity="0.75"/><rect x="845" y="682" width="81" height="398" fill="#22356b"/><rect x="851" y="780" width="5" height="7" fill="#9cc2ff" opacity="0.96"/><rect x="865" y="765" width="5" height="7" fill="#9cc2ff" opacity="0.60"/><rect x="926" y="606" width="89" height="474" fill="#22356b"/><rect x="937" y="846" width="5" height="7" fill="#9cc2ff" opacity="0.56"/><rect x="983" y="836" width="5" height="7" fill="#9cc2ff" opacity="0.77"/><rect x="951" y="737" width="5" height="7" fill="#9cc2ff" opacity="0.98"/><rect x="943" y="785" width="5" height="7" fill="#9cc2ff" opacity="0.81"/><rect x="1028" y="714" width="63" height="366" fill="#22356b"/><rect x="1042" y="790" width="5" height="7" fill="#9cc2ff" opacity="0.75"/><rect x="1097" y="589" width="112" height="491" fill="#22356b"/><rect x="1146" y="665" width="5" height="7" fill="#9cc2ff" opacity="0.56"/><rect x="1156" y="766" width="5" height="7" fill="#9cc2ff" opacity="0.41"/><rect x="1174" y="844" width="5" height="7" fill="#9cc2ff" opacity="0.48"/><rect x="1110" y="663" width="5" height="7" fill="#9cc2ff" opacity="0.42"/><rect x="1123" y="642" width="5" height="7" fill="#9cc2ff" opacity="0.46"/><rect x="1219" y="590" width="79" height="490" fill="#22356b"/><rect x="1270" y="839" width="5" height="7" fill="#9cc2ff" opacity="0.42"/><rect x="1240" y="659" width="5" height="7" fill="#9cc2ff" opacity="0.83"/><rect x="1229" y="664" width="5" height="7" fill="#9cc2ff" opacity="0.45"/><rect x="1301" y="655" width="96" height="425" fill="#22356b"/><rect x="1342" y="799" width="5" height="7" fill="#9cc2ff" opacity="0.85"/><rect x="1326" y="674" width="5" height="7" fill="#9cc2ff" opacity="0.63"/><rect x="1327" y="693" width="5" height="7" fill="#9cc2ff" opacity="0.71"/><rect x="1398" y="694" width="80" height="386" fill="#22356b"/><rect x="1435" y="654" width="6" height="40" fill="#22356b"/><rect x="1415" y="763" width="5" height="7" fill="#9cc2ff" opacity="0.46"/><rect x="1405" y="837" width="5" height="7" fill="#9cc2ff" opacity="0.80"/><rect x="1485" y="583" width="89" height="497" fill="#22356b"/><rect x="1518" y="700" width="5" height="7" fill="#9cc2ff" opacity="0.84"/><rect x="1546" y="810" width="5" height="7" fill="#9cc2ff" opacity="0.71"/><rect x="1497" y="807" width="5" height="7" fill="#9cc2ff" opacity="0.96"/><rect x="1514" y="641" width="5" height="7" fill="#9cc2ff" opacity="0.80"/><rect x="1581" y="716" width="96" height="364" fill="#22356b"/><rect x="1602" y="804" width="5" height="7" fill="#9cc2ff" opacity="0.62"/><rect x="1634" y="765" width="5" height="7" fill="#9cc2ff" opacity="0.41"/><rect x="1687" y="695" width="102" height="385" fill="#22356b"/><rect x="1735" y="655" width="6" height="40" fill="#22356b"/><rect x="1718" y="709" width="5" height="7" fill="#9cc2ff" opacity="0.89"/><rect x="1700" y="810" width="5" height="7" fill="#9cc2ff" opacity="0.78"/><rect x="1752" y="758" width="5" height="7" fill="#9cc2ff" opacity="0.93"/><rect x="1798" y="719" width="59" height="361" fill="#22356b"/><rect x="1827" y="768" width="5" height="7" fill="#9cc2ff" opacity="0.96"/><rect x="1858" y="527" width="78" height="553" fill="#22356b"/><rect x="1871" y="829" width="5" height="7" fill="#9cc2ff" opacity="0.62"/><rect x="1909" y="774" width="5" height="7" fill="#9cc2ff" opacity="0.48"/><rect x="1886" y="739" width="5" height="7" fill="#9cc2ff" opacity="0.93"/><rect x="1880" y="599" width="5" height="7" fill="#9cc2ff" opacity="0.47"/></svg>
